
<?xml version="1.0" encoding="UTF-8"?>
<svg width="1600" height="900" viewBox="0 0 1600 900" fill="none" xmlns="http://www.w3.org/2000/svg">
  <rect width="1600" height="900" rx="24" fill="#F7FAFC"/>
  <!-- Clean header -->
  <rect x="40" y="40" width="1520" height="64" rx="12" fill="#E6EFF8"/>
  <rect x="64" y="56" width="200" height="32" rx="8" fill="#1A3E5F"/>
  <!-- KPI band -->
  <rect x="40" y="120" width="360" height="120" rx="16" fill="#FFFFFF" stroke="#E2E8F0"/>
  <rect x="420" y="120" width="360" height="120" rx="16" fill="#FFFFFF" stroke="#E2E8F0"/>
  <rect x="800" y="120" width="360" height="120" rx="16" fill="#FFFFFF" stroke="#E2E8F0"/>
  <rect x="1180" y="120" width="360" height="120" rx="16" fill="#FFFFFF" stroke="#E2E8F0"/>
  <rect x="64" y="148" width="140" height="14" rx="7" fill="#4A4A4A" opacity="0.35"/>
  <rect x="64" y="172" width="120" height="26" rx="8" fill="#0097A7"/>
  <rect x="444" y="148" width="140" height="14" rx="7" fill="#4A4A4A" opacity="0.35"/>
  <rect x="444" y="172" width="120" height="26" rx="8" fill="#1A3E5F"/>
  <rect x="824" y="148" width="140" height="14" rx="7" fill="#4A4A4A" opacity="0.35"/>
  <rect x="824" y="172" width="120" height="26" rx="8" fill="#80DEEA"/>
  <rect x="1204" y="148" width="140" height="14" rx="7" fill="#4A4A4A" opacity="0.35"/>
  <rect x="1204" y="172" width="120" height="26" rx="8" fill="#0097A7"/>
  <!-- Left: area chart -->
  <rect x="40" y="268" width="740" height="560" rx="20" fill="#FFFFFF" stroke="#E2E8F0"/>
  <rect x="64" y="292" width="220" height="18" rx="9" fill="#4A4A4A" opacity="0.4"/>
  <path d="M80 760 L140 700 L220 720 L300 660 L380 680 L460 580 L540 590 L620 530 L700 560 L740 520 L740 760 Z" fill="#0097A7" opacity="0.15"/>
  <polyline points="80,760 140,700 220,720 300,660 380,680 460,580 540,590 620,530 700,560 740,520"
            fill="none" stroke="#0097A7" stroke-width="4" stroke-linecap="round"/>
  <line x1="64" y1="760" x2="740" y2="760" stroke="#E2E8F0"/>
  <line x1="64" y1="360" x2="64" y2="760" stroke="#E2E8F0"/>
  <!-- Right: panels -->
  <rect x="820" y="268" width="720" height="260" rx="20" fill="#FFFFFF" stroke="#E2E8F0"/>
  <rect x="844" y="292" width="200" height="16" rx="8" fill="#4A4A4A" opacity="0.35"/>
  <rect x="844" y="324" width="640" height="16" rx="8" fill="#E6EFF8"/>
  <rect x="820" y="548" width="720" height="280" rx="20" fill="#FFFFFF" stroke="#E2E8F0"/>
  <rect x="844" y="572" width="220" height="16" rx="8" fill="#4A4A4A" opacity="0.35"/>
  <!-- Tiny bar chart -->
  <rect x="860" y="620" width="60" height="140" rx="8" fill="#1A3E5F"/>
  <rect x="940" y="650" width="60" height="110" rx="8" fill="#0097A7"/>
  <rect x="1020" y="670" width="60" height="90" rx="8" fill="#80DEEA"/>
  <rect x="1100" y="690" width="60" height="70" rx="8" fill="#1A3E5F"/>
</svg>
