
<?xml version="1.0" encoding="UTF-8"?>
<svg width="1600" height="900" viewBox="0 0 1600 900" fill="none" xmlns="http://www.w3.org/2000/svg">
  <rect width="1600" height="900" rx="24" fill="#FDF7F7"/>
  <!-- Messy header -->
  <rect x="40" y="40" width="1520" height="56" rx="10" fill="#F3D6D6"/>
  <rect x="56" y="54" width="180" height="28" rx="6" fill="#D9534F" opacity="0.9"/>
  <rect x="246" y="54" width="120" height="28" rx="6" fill="#F0B7B7"/>
  <!-- Grid-like sheet -->
  <rect x="40" y="120" width="1520" height="660" rx="16" fill="#FFFFFF" stroke="#E9D5D5"/>
  <!-- Rows -->
  <g opacity="0.7">
    <rect x="56" y="140" width="1488" height="38" fill="#FFF1F1"/>
    <rect x="56" y="178" width="1488" height="38" fill="#FFF7F7"/>
    <rect x="56" y="216" width="1488" height="38" fill="#FFF1F1"/>
    <rect x="56" y="254" width="1488" height="38" fill="#FFF7F7"/>
    <rect x="56" y="292" width="1488" height="38" fill="#FFF1F1"/>
    <rect x="56" y="330" width="1488" height="38" fill="#FFF7F7"/>
    <rect x="56" y="368" width="1488" height="38" fill="#FFF1F1"/>
    <rect x="56" y="406" width="1488" height="38" fill="#FFF7F7"/>
    <rect x="56" y="444" width="1488" height="38" fill="#FFF1F1"/>
    <rect x="56" y="482" width="1488" height="38" fill="#FFF7F7"/>
    <rect x="56" y="520" width="1488" height="38" fill="#FFF1F1"/>
    <rect x="56" y="558" width="1488" height="38" fill="#FFF7F7"/>
    <rect x="56" y="596" width="1488" height="38" fill="#FFF1F1"/>
    <rect x="56" y="634" width="1488" height="38" fill="#FFF7F7"/>
    <rect x="56" y="672" width="1488" height="38" fill="#FFF1F1"/>
  </g>
  <!-- Random “warning” ticks to imply inconsistency -->
  <rect x="96" y="150" width="120" height="14" rx="7" fill="#D9534F"/>
  <rect x="96" y="228" width="180" height="14" rx="7" fill="#D9534F"/>
  <rect x="96" y="306" width="140" height="14" rx="7" fill="#D9534F"/>
  <rect x="96" y="384" width="160" height="14" rx="7" fill="#D9534F"/>
  <rect x="96" y="462" width="100" height="14" rx="7" fill="#D9534F"/>
  <rect x="96" y="540" width="170" height="14" rx="7" fill="#D9534F"/>
  <rect x="96" y="618" width="130" height="14" rx="7" fill="#D9534F"/>
  <!-- Sticky notes (mess) -->
  <rect x="1280" y="160" width="220" height="120" rx="8" fill="#FFF4B5" stroke="#E5D27A"/>
  <rect x="1300" y="180" width="180" height="14" rx="7" fill="#555" opacity="0.5"/>
  <rect x="1300" y="204" width="140" height="12" rx="6" fill="#777" opacity="0.4"/>
  <rect x="1300" y="226" width="160" height="12" rx="6" fill="#777" opacity="0.4"/>
</svg>
